<?xml version="1.0" encoding="UTF-8"?>
<svg width="24" height="24" viewBox="0 0 24 24" fill="none" xmlns="http://www.w3.org/2000/svg">
<path d="M11.9413 19.7117C16.1776 19.7117 19.6111 16.2781 19.6111 12.0419C19.6111 7.80563 16.1776 4.37207 11.9413 4.37207C7.70602 4.37207 4.27148 7.80563 4.27148 12.0419C4.27148 16.2781 7.70602 19.7117 11.9413 19.7117Z" stroke="currentColor" stroke-width="1.5" stroke-linecap="round" stroke-linejoin="round"></path>
<path d="M7.81105 18.5137L6.36523 20.9996" stroke="currentColor" stroke-width="1.5" stroke-linecap="round" stroke-linejoin="round"></path>
<path d="M16.0723 18.5137L17.5181 20.9996" stroke="currentColor" stroke-width="1.5" stroke-linecap="round" stroke-linejoin="round"></path>
<path d="M6.24931 3.00781L3.69141 5.19502" stroke="currentColor" stroke-width="1.5" stroke-linecap="round" stroke-linejoin="round"></path>
<path d="M17.75 3L20.3079 5.19596" stroke="currentColor" stroke-width="1.5" stroke-linecap="round" stroke-linejoin="round"></path>
<path d="M9.71924 14.316L14.2663 9.76892" stroke="currentColor" stroke-width="1.5" stroke-linecap="round" stroke-linejoin="round"></path>
<path d="M14.1543 14.2441V14.2888M14.3353 14.2537C14.3353 14.3543 14.2537 14.4358 14.1532 14.4358C14.0526 14.4358 13.9712 14.3543 13.9712 14.2537C13.9712 14.1532 14.0526 14.0717 14.1532 14.0717C14.2537 14.0717 14.3353 14.1532 14.3353 14.2537Z" stroke="currentColor" stroke-width="1.5" stroke-linecap="round" stroke-linejoin="round"></path>
<path d="M9.73046 9.82026V9.86493M9.91145 9.82986C9.91145 9.9304 9.82989 10.0119 9.72935 10.0119C9.62882 10.0119 9.54736 9.9304 9.54736 9.82986C9.54736 9.72933 9.62882 9.64783 9.72935 9.64783C9.82989 9.64783 9.91145 9.72933 9.91145 9.82986Z" stroke="currentColor" stroke-width="1.5" stroke-linecap="round" stroke-linejoin="round"></path>
</svg>