<?xml version="1.0" encoding="UTF-8"?>
<svg width="24" height="24" viewBox="0 0 24 24" fill="none" xmlns="http://www.w3.org/2000/svg">
<path fill-rule="evenodd" clip-rule="evenodd" d="M3.7402 3.89737C4.72468 2.84117 6.12669 2.25 7.78216 2.25H16.2169C17.8762 2.25 19.2788 2.84084 20.2629 3.89765C21.2413 4.94841 21.75 6.39889 21.75 8.02638V15.9736C21.75 17.6011 21.2413 19.0516 20.2627 20.1024C19.2785 21.1592 17.8757 21.75 16.2159 21.75H7.78216C6.1228 21.75 4.72038 21.1591 3.73657 20.1023C2.75842 19.0515 2.25 17.601 2.25 15.9736V8.02638C2.25 6.39806 2.76117 4.94771 3.7402 3.89737ZM4.83745 4.92012C4.16024 5.64667 3.75 6.70951 3.75 8.02638V15.9736C3.75 17.2914 4.15861 18.3541 4.83451 19.0802C5.50475 19.8003 6.49341 20.25 7.78216 20.25H16.2159C17.5052 20.25 18.4944 19.8002 19.165 19.0801C19.8412 18.354 20.25 17.2913 20.25 15.9736V8.02638C20.25 6.70868 19.8412 5.64597 19.1651 4.91984C18.4946 4.19975 17.5056 3.75 16.2169 3.75H7.78216C6.49828 3.75 5.50921 4.19943 4.83745 4.92012ZM12.3666 7.02724C13.0798 6.43843 14.0729 6.59755 14.649 7.17356L17.0678 9.59237C17.6432 10.1678 17.8034 11.161 17.214 11.8739C16.863 12.299 16.3541 12.4995 15.8576 12.4784L15.8549 12.4783C15.7087 12.4716 15.6491 12.514 15.6307 12.5327L14.6754 13.5036C14.6752 13.5038 14.6749 13.5041 14.6746 13.5044C14.5388 13.6438 14.4542 13.8223 14.433 14.0128L14.3454 14.7956C14.1812 16.263 12.392 16.8922 11.3466 15.8468L10.4003 14.9005L9.20189 16.0989C8.909 16.3918 8.43412 16.3918 8.14123 16.0989C7.84834 15.806 7.84834 15.3312 8.14123 15.0383L9.33965 13.8399L8.39457 12.8948C7.35007 11.8503 7.976 10.0592 9.44582 9.89497L10.2283 9.80834C10.4188 9.78712 10.5979 9.702 10.7355 9.56713C10.7354 9.56721 10.7356 9.56705 10.7355 9.56713L11.7074 8.61181C11.7073 8.61188 11.7074 8.61174 11.7074 8.61181C11.7263 8.593 11.7692 8.53093 11.7629 8.38404C11.7419 7.88933 11.9401 7.37942 12.3666 7.02724ZM13.3215 8.184C13.2791 8.21907 13.2593 8.266 13.2616 8.32001C13.2805 8.76214 13.162 9.28401 12.7606 9.67986L11.7868 10.6371C11.4107 11.0061 10.9199 11.2406 10.3944 11.2991L9.61241 11.3857C9.61225 11.3857 9.61257 11.3857 9.61241 11.3857C9.39349 11.4105 9.29918 11.6781 9.45523 11.8341L12.4072 14.7861C12.5624 14.9413 12.8301 14.8485 12.8547 14.6288L12.9422 13.8471C13.0008 13.3199 13.235 12.8313 13.6027 12.4551L13.6045 12.4533L14.5603 11.482C14.9563 11.0784 15.4786 10.9594 15.9239 10.9799L15.8894 11.7291L15.9213 10.9798C15.9735 10.982 16.0212 10.9626 16.0574 10.9188C16.0731 10.8998 16.0883 10.8673 16.0836 10.8145C16.0786 10.7583 16.0521 10.6981 16.0071 10.653L13.5883 8.23422C13.5433 8.18923 13.4831 8.16273 13.4268 8.15773C13.3739 8.15304 13.3413 8.16765 13.3215 8.184Z" fill="currentColor"></path>
</svg>